<?xml version="1.0" encoding="UTF-8"?>
<svg version="1.1" xmlns="http://www.w3.org/2000/svg" width="85" height="43">
<path d="M0 0 C28.05 0 56.1 0 85 0 C85 14.19 85 28.38 85 43 C56.95 43 28.9 43 0 43 C0 28.81 0 14.62 0 0 Z " fill="#FCFBFD" transform="translate(0,0)"/>
<path d="M0 0 C4.20796686 -0.14570522 8.41528166 -0.23421087 12.625 -0.3125 C13.81480469 -0.35439453 15.00460938 -0.39628906 16.23046875 -0.43945312 C26.11617734 -0.57752168 26.11617734 -0.57752168 29.67578125 2.515625 C30.44277344 3.33546875 31.20976563 4.1553125 32 5 C35.49514839 5.08524752 36.67411924 4.29361916 39.26635742 1.95800781 C42.55080097 -0.39451851 44.18229687 -0.46931435 48.17578125 -0.390625 C49.33271484 -0.37773438 50.48964844 -0.36484375 51.68164062 -0.3515625 C52.87982422 -0.31804687 54.07800781 -0.28453125 55.3125 -0.25 C57.1387793 -0.22292969 57.1387793 -0.22292969 59.00195312 -0.1953125 C62.00210422 -0.14825131 65.00064889 -0.0825131 68 0 C64.04717944 4.79569483 59.89404183 9.17883951 55.3125 13.375 C54.70237061 13.93807861 54.09224121 14.50115723 53.46362305 15.08129883 C48.98677673 19.17937554 44.39364565 23.08570263 39.58203125 26.7890625 C36.90343212 28.93637512 36.90343212 28.93637512 34.82421875 31.7734375 C31.13556429 36.19982286 28.61086861 38.63705048 22.87744141 39.43408203 C14.90595409 39.86829684 6.95880928 39.54818544 -1 39 C1.44475675 35.89861337 3.80035702 33.12067438 6.8125 30.5625 C7.49957031 29.9746875 8.18664063 29.386875 8.89453125 28.78125 C9.58933594 28.1934375 10.28414062 27.605625 11 27 C12.33374065 25.8546408 13.66710528 24.70884353 15 23.5625 C15.99 22.716875 16.98 21.87125 18 21 C17.44686621 17.11050366 15.71871007 15.37329977 12.9375 12.6875 C12.133125 11.90761719 11.32875 11.12773437 10.5 10.32421875 C7.54236997 7.57454709 4.52241592 4.91361341 1.43359375 2.3125 C0.96050781 1.879375 0.48742187 1.44625 0 1 C0 0.67 0 0.34 0 0 Z " fill="#A295F2" transform="translate(8,3)"/>
<path d="M0 0 C3.47775179 1.51553404 5.9557984 3.5773456 8.75 6.125 C9.54921875 6.84945313 10.3484375 7.57390625 11.171875 8.3203125 C11.77515625 8.87460937 12.3784375 9.42890625 13 10 C12.77446791 13.04468326 11.7416724 14.3213007 9.8046875 16.73046875 C4.79044405 20.64325705 -1.86093284 19.51610123 -7.875 19.3125 C-9.13570312 19.28994141 -10.39640625 19.26738281 -11.6953125 19.24414062 C-14.79809499 19.18537581 -17.89843199 19.10325851 -21 19 C-15.02972617 11.43688029 -7.63737475 5.81642661 0 0 Z " fill="#0C0C3D" transform="translate(28,23)"/>
<path d="M0 0 C2.46501218 0.87724679 3.75503653 1.96813981 5.64282227 3.77099609 C6.61155273 4.68655273 6.61155273 4.68655273 7.59985352 5.62060547 C8.5956543 6.58256836 8.5956543 6.58256836 9.61157227 7.56396484 C10.60737305 8.50852539 10.60737305 8.50852539 11.62329102 9.47216797 C14.83039333 12.52243594 17.98807893 15.61554268 21.11157227 18.75146484 C16.77894401 18.95613115 12.44756943 19.07956018 8.11157227 19.18896484 C6.28045898 19.27694336 6.28045898 19.27694336 4.41235352 19.36669922 C-1.83493621 19.48489119 -5.92782077 19.45527719 -10.76342773 15.22412109 C-11.83846689 14.09749468 -12.8940342 12.94987119 -13.88842773 11.75146484 C-11.22679105 8.36392725 -8.49896879 5.23398323 -5.32592773 2.31396484 C-4.76776367 1.79962891 -4.20959961 1.28529297 -3.63452148 0.75537109 C-1.88842773 -0.24853516 -1.88842773 -0.24853516 0 0 Z " fill="#A295F2" transform="translate(55.888427734375,23.24853515625)"/>
<path d="M0 0 C4.16593199 -0.20478598 8.33055793 -0.32813027 12.5 -0.4375 C14.25957031 -0.52547852 14.25957031 -0.52547852 16.0546875 -0.61523438 C22.19528973 -0.73597655 26.09873175 -0.62454722 30.84375 3.52734375 C31.92772972 4.65508226 32.99294795 5.80306544 34 7 C30 11 26 15 22 19 C17.91620659 17.64827153 15.62316481 15.93063758 12.6875 12.8125 C9.0976739 9.08414034 5.3911682 5.64519428 1.43359375 2.3125 C0.96050781 1.879375 0.48742188 1.44625 0 1 C0 0.67 0 0.34 0 0 Z " fill="#0E0E3F" transform="translate(8,3)"/>
<path d="M0 0 C3.15282724 1.42089299 5.53777964 3.15031851 8.125 5.4375 C8.80820312 6.03433594 9.49140625 6.63117187 10.1953125 7.24609375 C12 9 12 9 14 12 C9.71 15.96 5.42 19.92 1 24 C-0.65 22.35 -2.3 20.7 -4 19 C-5.19216298 17.87839361 -6.39836934 16.77130381 -7.625 15.6875 C-8.19476563 15.17574219 -8.76453125 14.66398437 -9.3515625 14.13671875 C-11.07789419 12.71615632 -11.07789419 12.71615632 -14 13 C-13 10 -13 10 -11.234375 9.0703125 C-10.49703125 8.71710937 -9.7596875 8.36390625 -9 8 C-7.3820063 6.66595884 -5.79961867 5.28788761 -4.25 3.875 C-3.45078125 3.15054687 -2.6515625 2.42609375 -1.828125 1.6796875 C-0.92320313 0.84824219 -0.92320313 0.84824219 0 0 Z " fill="#5A4DB8" transform="translate(41,11)"/>
<path d="M0 0 C3.91841827 1.30613942 6.32640809 2.83129848 9 6 C9 6.66 9 7.32 9 8 C3.72 8 -1.56 8 -7 8 C-4.9957983 3.9915966 -3.50944037 2.58590343 0 0 Z " fill="#F4F4F8" transform="translate(41,35)"/>
<path d="M0 0 C0.66 0.33 1.32 0.66 2 1 C-1.63 4.63 -5.26 8.26 -9 12 C-1.74 12.33 5.52 12.66 13 13 C13 13.33 13 13.66 13 14 C4.09 14 -4.82 14 -14 14 C-11.24274689 10.55343361 -9.13056321 8.06673124 -5.875 5.3125 C-3.84411909 3.5843353 -1.88645821 1.88645821 0 0 Z " fill="#21214D" transform="translate(21,28)"/>
<path d="M0 0 C0.66 0.33 1.32 0.66 2 1 C-1.96 4.96 -5.92 8.92 -10 13 C-10.66 12.34 -11.32 11.68 -12 11 C-8.04 7.37 -4.08 3.74 0 0 Z " fill="#37375F" transform="translate(21,28)"/>
</svg>
